<svg width="1023" height="645" viewBox="0 0 1023 645" fill="none" xmlns="http://www.w3.org/2000/svg">
<path d="M585 0.717773H729.573V645H585V0.717773Z" fill="black" fill-opacity="0.2"/>
<path d="M292 0.717773H436.573V645H292V0.717773Z" fill="black" fill-opacity="0.2"/>
<rect y="0.717773" width="1023" height="643.423" rx="30" fill="black" fill-opacity="0.2"/>
<path d="M0 30.7178C0 14.1492 13.4315 0.717773 30 0.717773H992.154C1008.72 0.717773 1022.15 14.1492 1022.15 30.7178V86.622H0V30.7178Z" fill="black" fill-opacity="0.2"/>
<path d="M0 30.7178C0 14.1493 13.4315 0.717773 30 0.717773H144.573V645H30C13.4315 645 0 631.568 0 615V30.7178Z" fill="black" fill-opacity="0.2"/>
<path d="M877.582 0.717773H992.155C1008.72 0.717773 1022.15 14.1492 1022.15 30.7178V615C1022.15 631.568 1008.72 645 992.155 645H877.582V0.717773Z" fill="black" fill-opacity="0.2"/>
<path d="M146.264 0.717773H290.836V645H146.264V0.717773Z" fill="black" fill-opacity="0.2"/>
<path d="M144 86H288V644H144V86Z" fill="#24586E" fill-opacity="0.3"/>
<path d="M585 83H729V644H585V83Z" fill="#24586E" fill-opacity="0.3"/>
<path d="M438.791 0.717773H583.364V645H438.791V0.717773Z" fill="black" fill-opacity="0.2"/>
<path d="M731.318 0.717773H875.891V645H731.318V0.717773Z" fill="black" fill-opacity="0.2"/>
<path d="M58.448 41.3286C58.2429 39.3804 56.6706 38.2183 54.1755 38.2183C51.5779 38.2183 50.1423 39.4146 50.1081 41.0552C50.074 42.8325 51.9538 43.6528 54.073 44.1313L56.2947 44.6782C60.5329 45.6353 63.7117 47.7886 63.7117 51.9243C63.7117 56.4702 60.157 59.3413 54.1413 59.3413C48.1599 59.3413 44.3318 56.5728 44.195 51.2749H49.1853C49.3562 53.77 51.3386 55.0347 54.073 55.0347C56.7732 55.0347 58.5163 53.77 58.5163 51.9243C58.5163 50.2495 56.9783 49.4634 54.2781 48.7798L51.5779 48.1304C47.4079 47.105 44.8445 45.02 44.8445 41.397C44.8445 36.8853 48.8093 33.9116 54.2097 33.9116C59.6784 33.9116 63.3015 36.9536 63.3699 41.3286H58.448ZM78.8533 51.104V40.4399H83.9118V58.9995H79.0583V55.6499H78.8533C77.9988 57.8032 76.0163 59.2388 73.2136 59.2388C69.488 59.2388 66.9587 56.6069 66.9587 52.2661V40.4399H72.0173V51.3774C72.0173 53.5649 73.282 54.9663 75.2644 54.9663C77.1101 54.9663 78.8533 53.6333 78.8533 51.104ZM92.9011 48.2671V58.9995H87.8425V40.4399H92.6618V43.687H92.8669C93.7214 41.5337 95.7038 40.2007 98.4382 40.2007C102.301 40.2007 104.864 42.8325 104.83 47.1733V58.9995H99.8054V48.062C99.8054 45.772 98.5408 44.4048 96.4558 44.4048C94.3367 44.4048 92.9011 45.8062 92.9011 48.2671Z" fill="#FF8282"/>
<path d="M182.618 34.2534H188.975L195.845 51.0356H196.119L202.989 34.2534H209.346V58.9995H204.356V42.7983H204.151L197.691 58.897H194.273L187.813 42.73H187.608V58.9995H182.618V34.2534ZM221.753 59.3755C216.148 59.3755 212.661 55.5132 212.661 49.771C212.661 44.0288 216.148 40.2007 221.753 40.2007C227.359 40.2007 230.879 44.0288 230.879 49.771C230.879 55.5132 227.359 59.3755 221.753 59.3755ZM221.787 55.4448C224.385 55.4448 225.718 53.0181 225.718 49.771C225.718 46.4897 224.385 44.063 221.787 44.063C219.156 44.063 217.788 46.4897 217.788 49.771C217.788 53.0181 219.156 55.4448 221.787 55.4448ZM239.117 48.2671V58.9995H234.058V40.4399H238.877V43.687H239.082C239.937 41.5337 241.919 40.2007 244.654 40.2007C248.516 40.2007 251.079 42.8325 251.045 47.1733V58.9995H246.021V48.062C246.021 45.772 244.756 44.4048 242.671 44.4048C240.552 44.4048 239.117 45.8062 239.117 48.2671Z" fill="white"/>
<path d="M336.088 38.4917V34.2534H356.357V38.4917H348.769V58.9995H343.676V38.4917H336.088ZM368.798 51.104V40.4399H373.857V58.9995H369.003V55.6499H368.798C367.944 57.8032 365.961 59.2388 363.159 59.2388C359.433 59.2388 356.904 56.6069 356.904 52.2661V40.4399H361.962V51.3774C361.962 53.5649 363.227 54.9663 365.209 54.9663C367.055 54.9663 368.798 53.6333 368.798 51.104ZM386.196 59.3755C380.522 59.3755 377.035 55.6841 377.035 49.8052C377.035 44.063 380.556 40.2007 385.991 40.2007C390.878 40.2007 394.706 43.2769 394.706 49.6001V51.0356H382.026C382.026 53.8384 383.701 55.5815 386.298 55.5815C388.007 55.5815 389.238 54.8296 389.75 53.7017H394.57C393.852 57.1196 390.776 59.3755 386.196 59.3755ZM382.026 47.8569H389.921C389.921 45.6011 388.349 43.9946 386.093 43.9946C383.769 43.9946 382.111 45.7207 382.026 47.8569Z" fill="white"/>
<path d="M477.223 58.9995L470.147 34.2534H475.753L479.923 51.5483H480.128L484.674 34.2534H489.493L494.039 51.5825H494.244L498.414 34.2534H504.019L496.944 58.9995H491.92L487.203 42.6616H486.998L482.247 58.9995H477.223ZM512.94 59.3755C507.267 59.3755 503.78 55.6841 503.78 49.8052C503.78 44.063 507.301 40.2007 512.735 40.2007C517.623 40.2007 521.451 43.2769 521.451 49.6001V51.0356H508.77C508.77 53.8384 510.445 55.5815 513.043 55.5815C514.752 55.5815 515.982 54.8296 516.495 53.7017H521.314C520.597 57.1196 517.52 59.3755 512.94 59.3755ZM508.77 47.8569H516.666C516.666 45.6011 515.094 43.9946 512.838 43.9946C510.514 43.9946 508.856 45.7207 508.77 47.8569ZM531.466 59.3071C527.227 59.3071 523.912 55.9233 523.912 49.7368C523.912 43.3794 527.364 40.2007 531.466 40.2007C534.576 40.2007 536.046 42.0464 536.729 43.5503H536.9V34.2534H541.959V58.9995H536.969V56.0259H536.729C536.012 57.564 534.474 59.3071 531.466 59.3071ZM533.038 55.2739C535.567 55.2739 537.003 53.0522 537.003 49.7026C537.003 46.353 535.567 44.2339 533.038 44.2339C530.475 44.2339 529.107 46.4556 529.107 49.7026C529.107 52.9839 530.475 55.2739 533.038 55.2739Z" fill="white"/>
<path d="M627.556 38.4917V34.2534H647.825V38.4917H640.237V58.9995H635.144V38.4917H627.556ZM655.959 48.2671V58.9995H650.901V34.2534H655.823V43.687H656.028C656.882 41.5337 658.762 40.2007 661.565 40.2007C665.427 40.2007 667.991 42.7983 667.991 47.1733V58.9995H662.932V48.062C662.932 45.772 661.702 44.4048 659.583 44.4048C657.463 44.4048 655.959 45.8062 655.959 48.2671ZM683.782 51.104V40.4399H688.84V58.9995H683.987V55.6499H683.782C682.927 57.8032 680.945 59.2388 678.142 59.2388C674.417 59.2388 671.887 56.6069 671.887 52.2661V40.4399H676.946V51.3774C676.946 53.5649 678.21 54.9663 680.193 54.9663C682.039 54.9663 683.782 53.6333 683.782 51.104Z" fill="white"/>
<path d="M781.08 58.9995V34.2534H797.384V38.4917H786.207V44.5073H796.324V48.7456H786.207V58.9995H781.08ZM800.358 58.9995V40.4399H805.245V43.6528H805.45C806.134 41.3628 807.843 40.1665 809.928 40.1665C810.441 40.1665 811.09 40.2349 811.534 40.3374V44.8491C811.056 44.7124 810.099 44.5757 809.381 44.5757C807.091 44.5757 805.416 46.1821 805.416 48.438V58.9995H800.358ZM813.995 58.9995V40.4399H819.054V58.9995H813.995ZM816.524 38.0132C814.986 38.0132 813.756 36.8511 813.756 35.4497C813.756 34.0142 814.986 32.8521 816.524 32.8521C818.028 32.8521 819.259 34.0142 819.259 35.4497C819.259 36.8511 818.028 38.0132 816.524 38.0132Z" fill="white"/>
<path d="M936.925 41.3286C936.72 39.3804 935.148 38.2183 932.653 38.2183C930.055 38.2183 928.62 39.4146 928.586 41.0552C928.551 42.8325 930.431 43.6528 932.55 44.1313L934.772 44.6782C939.01 45.6353 942.189 47.7886 942.189 51.9243C942.189 56.4702 938.634 59.3413 932.619 59.3413C926.637 59.3413 922.809 56.5728 922.672 51.2749H927.663C927.834 53.77 929.816 55.0347 932.55 55.0347C935.251 55.0347 936.994 53.77 936.994 51.9243C936.994 50.2495 935.456 49.4634 932.755 48.7798L930.055 48.1304C925.885 47.105 923.322 45.02 923.322 41.397C923.322 36.8853 927.287 33.9116 932.687 33.9116C938.156 33.9116 941.779 36.9536 941.847 41.3286H936.925ZM944.547 53.8042C944.547 49.6685 947.897 48.3013 951.452 48.0962C952.785 48.0107 955.28 47.8911 956.066 47.8569V46.353C956.032 44.8149 954.972 43.8921 953.092 43.8921C951.383 43.8921 950.29 44.6782 950.016 45.9429H945.197C945.504 42.73 948.307 40.2007 953.229 40.2007C957.262 40.2007 961.09 42.0122 961.09 46.4897V58.9995H956.305V56.436H956.169C955.246 58.145 953.503 59.3413 950.734 59.3413C947.179 59.3413 944.547 57.4956 944.547 53.8042ZM949.401 53.6675C949.401 55.103 950.563 55.855 952.17 55.855C954.46 55.855 956.1 54.3169 956.066 52.3687V51.0015C955.297 51.0356 953.144 51.1553 952.272 51.2407C950.529 51.4116 949.401 52.2319 949.401 53.6675ZM974.728 40.4399V44.2339H971.242V53.2915C971.242 54.7612 971.96 55.1372 972.985 55.1714C973.498 55.1714 974.386 55.1372 975.002 55.0688V59.0679C974.455 59.1704 973.566 59.2388 972.301 59.2388C968.644 59.2388 966.149 57.5981 966.183 54.0093V44.2339H963.62V40.4399H966.183V35.9966H971.242V40.4399H974.728Z" fill="#52A1FF"/>
<path d="M195.654 299.868C195.654 304.893 197.056 310.088 201.294 312.822L198.936 316.206C196.252 314.583 194.543 311.917 193.569 308.721C192.441 312.241 190.579 315.181 187.759 316.89L185.093 313.677C189.707 310.806 191.416 305.337 191.416 300.073V294.707H195.654V299.868ZM212.642 292.041V323.145H208.472V292.041H212.642ZM206.113 292.485V321.709H202.046V306.089H198.013V302.534H202.046V292.485H206.113ZM227.578 297.407C227.578 301.714 229.697 305.986 234.619 307.798L232.192 311.182C228.928 309.9 226.689 307.456 225.425 304.38C224.058 307.661 221.648 310.225 218.11 311.558L215.786 308.14C220.879 306.328 223.169 301.953 223.169 297.407V293.818H227.578V297.407ZM242.139 292.075V315.146H237.798V305.645H232.466V302.124H237.798V299.629H232.466V296.108H237.798V292.075H242.139ZM242.788 319.111V322.598H221.426V312.925H225.835V319.111H242.788ZM219.409 348.254V373H214.248V353.142H214.111L208.438 356.696V352.15L214.556 348.254H219.409ZM191.082 451.031V468H187.543V454.383H187.449L183.559 456.82V453.703L187.754 451.031H191.082ZM201.207 450.797C204.723 450.82 208.051 452.906 208.051 459.07C208.074 464.836 205.332 468.234 201.066 468.234C197.645 468.234 195.324 466.102 194.973 463.219H198.441C198.723 464.461 199.707 465.211 201.066 465.211C203.387 465.211 204.605 463.148 204.605 459.75H204.465C203.668 461.25 202.004 462.141 200.105 462.141C197.059 462.141 194.809 459.844 194.785 456.68C194.785 453.258 197.363 450.773 201.207 450.797ZM201.23 453.562C199.496 453.562 198.207 454.898 198.23 456.586C198.23 458.25 199.473 459.562 201.207 459.562C202.918 459.562 204.254 458.203 204.254 456.562C204.23 454.945 202.965 453.562 201.23 453.562ZM212.504 465.938C211.402 465.938 210.512 465.047 210.535 463.969C210.512 462.891 211.402 462.023 212.504 462.023C213.535 462.023 214.449 462.891 214.449 463.969C214.449 465.047 213.535 465.938 212.504 465.938ZM212.504 457.008C211.402 457.008 210.512 456.117 210.535 455.039C210.512 453.961 211.402 453.094 212.504 453.094C213.535 453.094 214.449 453.961 214.449 455.039C214.449 456.117 213.535 457.008 212.504 457.008ZM223.801 468.234C219.559 468.234 216.98 465.07 216.98 459.516C216.98 453.961 219.559 450.797 223.801 450.797C228.043 450.797 230.621 453.984 230.621 459.516C230.621 465.094 228.043 468.234 223.801 468.234ZM223.801 465.328C225.77 465.328 227.035 463.43 227.012 459.516C227.012 455.648 225.77 453.68 223.801 453.68C221.832 453.68 220.59 455.648 220.59 459.516C220.566 463.43 221.832 465.328 223.801 465.328ZM239.645 468.234C235.402 468.234 232.824 465.07 232.824 459.516C232.824 453.961 235.402 450.797 239.645 450.797C243.887 450.797 246.465 453.984 246.465 459.516C246.465 465.094 243.887 468.234 239.645 468.234ZM239.645 465.328C241.613 465.328 242.879 463.43 242.855 459.516C242.855 455.648 241.613 453.68 239.645 453.68C237.676 453.68 236.434 455.648 236.434 459.516C236.41 463.43 237.676 465.328 239.645 465.328ZM209.387 502.477C210.184 501.633 211.191 501.188 212.293 501.188C214.215 501.188 215.855 502.523 217.777 502.523C218.855 502.523 219.84 502.078 220.613 501.234V504.094C219.816 504.938 218.809 505.383 217.707 505.383C215.785 505.383 214.145 504.047 212.223 504.047C211.145 504.047 210.16 504.492 209.387 505.336V502.477ZM184.156 552L184.133 549.445L190.227 543.844C191.82 542.32 192.664 541.383 192.664 540.047C192.664 538.547 191.516 537.609 189.969 537.609C188.375 537.609 187.344 538.617 187.344 540.234H183.992C183.969 536.906 186.43 534.797 190.016 534.797C193.648 534.797 196.062 536.859 196.062 539.812C196.062 541.734 195.125 543.328 191.633 546.492L189.055 549V549.094H196.297V552H184.156ZM206.117 535.031V552H202.578V538.383H202.484L198.594 540.82V537.703L202.789 535.031H206.117ZM212.117 549.938C211.016 549.938 210.125 549.047 210.148 547.969C210.125 546.891 211.016 546.023 212.117 546.023C213.148 546.023 214.062 546.891 214.062 547.969C214.062 549.047 213.148 549.938 212.117 549.938ZM212.117 541.008C211.016 541.008 210.125 540.117 210.148 539.039C210.125 537.961 211.016 537.094 212.117 537.094C213.148 537.094 214.062 537.961 214.062 539.039C214.062 540.117 213.148 541.008 212.117 541.008ZM223.414 552.234C219.172 552.234 216.594 549.07 216.594 543.516C216.594 537.961 219.172 534.797 223.414 534.797C227.656 534.797 230.234 537.984 230.234 543.516C230.234 549.094 227.656 552.234 223.414 552.234ZM223.414 549.328C225.383 549.328 226.648 547.43 226.625 543.516C226.625 539.648 225.383 537.68 223.414 537.68C221.445 537.68 220.203 539.648 220.203 543.516C220.18 547.43 221.445 549.328 223.414 549.328ZM239.258 552.234C235.016 552.234 232.438 549.07 232.438 543.516C232.438 537.961 235.016 534.797 239.258 534.797C243.5 534.797 246.078 537.984 246.078 543.516C246.078 549.094 243.5 552.234 239.258 552.234ZM239.258 549.328C241.227 549.328 242.492 547.43 242.469 543.516C242.469 539.648 241.227 537.68 239.258 537.68C237.289 537.68 236.047 539.648 236.047 543.516C236.023 547.43 237.289 549.328 239.258 549.328Z" fill="white"/>
<path d="M637.654 299.868C637.654 304.893 639.056 310.088 643.294 312.822L640.936 316.206C638.252 314.583 636.543 311.917 635.569 308.721C634.441 312.241 632.579 315.181 629.759 316.89L627.093 313.677C631.707 310.806 633.416 305.337 633.416 300.073V294.707H637.654V299.868ZM654.642 292.041V323.145H650.472V292.041H654.642ZM648.113 292.485V321.709H644.046V306.089H640.013V302.534H644.046V292.485H648.113ZM669.578 297.407C669.578 301.714 671.697 305.986 676.619 307.798L674.192 311.182C670.928 309.9 668.689 307.456 667.425 304.38C666.058 307.661 663.648 310.225 660.11 311.558L657.786 308.14C662.879 306.328 665.169 301.953 665.169 297.407V293.818H669.578V297.407ZM684.139 292.075V315.146H679.798V305.645H674.466V302.124H679.798V299.629H674.466V296.108H679.798V292.075H684.139ZM684.788 319.111V322.598H663.426V312.925H667.835V319.111H684.788ZM648.267 373L648.233 369.274L657.12 361.105C659.444 358.884 660.674 357.517 660.674 355.568C660.674 353.381 659 352.014 656.744 352.014C654.419 352.014 652.916 353.483 652.916 355.842H648.028C647.994 350.988 651.583 347.912 656.812 347.912C662.11 347.912 665.63 350.92 665.63 355.227C665.63 358.029 664.263 360.354 659.17 364.968L655.411 368.625V368.762H665.972V373H648.267ZM633.082 451.031V468H629.543V454.383H629.449L625.559 456.82V453.703L629.754 451.031H633.082ZM643.207 450.797C646.723 450.82 650.051 452.906 650.051 459.07C650.074 464.836 647.332 468.234 643.066 468.234C639.645 468.234 637.324 466.102 636.973 463.219H640.441C640.723 464.461 641.707 465.211 643.066 465.211C645.387 465.211 646.605 463.148 646.605 459.75H646.465C645.668 461.25 644.004 462.141 642.105 462.141C639.059 462.141 636.809 459.844 636.785 456.68C636.785 453.258 639.363 450.773 643.207 450.797ZM643.23 453.562C641.496 453.562 640.207 454.898 640.23 456.586C640.23 458.25 641.473 459.562 643.207 459.562C644.918 459.562 646.254 458.203 646.254 456.562C646.23 454.945 644.965 453.562 643.23 453.562ZM654.504 465.938C653.402 465.938 652.512 465.047 652.535 463.969C652.512 462.891 653.402 462.023 654.504 462.023C655.535 462.023 656.449 462.891 656.449 463.969C656.449 465.047 655.535 465.938 654.504 465.938ZM654.504 457.008C653.402 457.008 652.512 456.117 652.535 455.039C652.512 453.961 653.402 453.094 654.504 453.094C655.535 453.094 656.449 453.961 656.449 455.039C656.449 456.117 655.535 457.008 654.504 457.008ZM665.801 468.234C661.559 468.234 658.98 465.07 658.98 459.516C658.98 453.961 661.559 450.797 665.801 450.797C670.043 450.797 672.621 453.984 672.621 459.516C672.621 465.094 670.043 468.234 665.801 468.234ZM665.801 465.328C667.77 465.328 669.035 463.43 669.012 459.516C669.012 455.648 667.77 453.68 665.801 453.68C663.832 453.68 662.59 455.648 662.59 459.516C662.566 463.43 663.832 465.328 665.801 465.328ZM681.645 468.234C677.402 468.234 674.824 465.07 674.824 459.516C674.824 453.961 677.402 450.797 681.645 450.797C685.887 450.797 688.465 453.984 688.465 459.516C688.465 465.094 685.887 468.234 681.645 468.234ZM681.645 465.328C683.613 465.328 684.879 463.43 684.855 459.516C684.855 455.648 683.613 453.68 681.645 453.68C679.676 453.68 678.434 455.648 678.434 459.516C678.41 463.43 679.676 465.328 681.645 465.328ZM651.387 502.477C652.184 501.633 653.191 501.188 654.293 501.188C656.215 501.188 657.855 502.523 659.777 502.523C660.855 502.523 661.84 502.078 662.613 501.234V504.094C661.816 504.938 660.809 505.383 659.707 505.383C657.785 505.383 656.145 504.047 654.223 504.047C653.145 504.047 652.16 504.492 651.387 505.336V502.477ZM626.156 552L626.133 549.445L632.227 543.844C633.82 542.32 634.664 541.383 634.664 540.047C634.664 538.547 633.516 537.609 631.969 537.609C630.375 537.609 629.344 538.617 629.344 540.234H625.992C625.969 536.906 628.43 534.797 632.016 534.797C635.648 534.797 638.062 536.859 638.062 539.812C638.062 541.734 637.125 543.328 633.633 546.492L631.055 549V549.094H638.297V552H626.156ZM648.117 535.031V552H644.578V538.383H644.484L640.594 540.82V537.703L644.789 535.031H648.117ZM654.117 549.938C653.016 549.938 652.125 549.047 652.148 547.969C652.125 546.891 653.016 546.023 654.117 546.023C655.148 546.023 656.062 546.891 656.062 547.969C656.062 549.047 655.148 549.938 654.117 549.938ZM654.117 541.008C653.016 541.008 652.125 540.117 652.148 539.039C652.125 537.961 653.016 537.094 654.117 537.094C655.148 537.094 656.062 537.961 656.062 539.039C656.062 540.117 655.148 541.008 654.117 541.008ZM665.414 552.234C661.172 552.234 658.594 549.07 658.594 543.516C658.594 537.961 661.172 534.797 665.414 534.797C669.656 534.797 672.234 537.984 672.234 543.516C672.234 549.094 669.656 552.234 665.414 552.234ZM665.414 549.328C667.383 549.328 668.648 547.43 668.625 543.516C668.625 539.648 667.383 537.68 665.414 537.68C663.445 537.68 662.203 539.648 662.203 543.516C662.18 547.43 663.445 549.328 665.414 549.328ZM681.258 552.234C677.016 552.234 674.438 549.07 674.438 543.516C674.438 537.961 677.016 534.797 681.258 534.797C685.5 534.797 688.078 537.984 688.078 543.516C688.078 549.094 685.5 552.234 681.258 552.234ZM681.258 549.328C683.227 549.328 684.492 547.43 684.469 543.516C684.469 539.648 683.227 537.68 681.258 537.68C679.289 537.68 678.047 539.648 678.047 543.516C678.023 547.43 679.289 549.328 681.258 549.328Z" fill="white"/>
</svg>
