<svg width="1023" height="646" viewBox="0 0 1023 646" fill="none" xmlns="http://www.w3.org/2000/svg">
<rect y="1.71826" width="1023" height="643.423" rx="30" fill="black" fill-opacity="0.2"/>
<path d="M0 31.7183C0 15.1497 13.4315 1.71826 30 1.71826H992.154C1008.72 1.71826 1022.15 15.1497 1022.15 31.7183V87.6225H0V31.7183Z" fill="black" fill-opacity="0.2"/>
<path d="M0 31.7183C0 15.1497 13.4315 1.71826 30 1.71826H144.573V646H30C13.4315 646 0 632.569 0 616V31.7183Z" fill="black" fill-opacity="0.2"/>
<path d="M877.582 1.71826H992.155C1008.72 1.71826 1022.15 15.1497 1022.15 31.7183V616C1022.15 632.569 1008.72 646 992.155 646H877.582V1.71826Z" fill="black" fill-opacity="0.2"/>
<path d="M146.264 1.71826H290.836V646H146.264V1.71826Z" fill="black" fill-opacity="0.2"/>
<path d="M292.527 1.71826H437.1V646H292.527V1.71826Z" fill="#24586E" fill-opacity="0.3"/>
<path d="M438.791 1.71826H583.364V646H438.791V1.71826Z" fill="black" fill-opacity="0.2"/>
<path d="M585.055 0H729.627V644.282H585.055V0Z" fill="#24586E" fill-opacity="0.3"/>
<path d="M731.318 1.71826H875.891V646H731.318V1.71826Z" fill="black" fill-opacity="0.2"/>
<path d="M58.448 42.3291C58.2429 40.3809 56.6706 39.2188 54.1755 39.2188C51.5779 39.2188 50.1423 40.415 50.1081 42.0557C50.074 43.833 51.9538 44.6533 54.073 45.1318L56.2947 45.6787C60.5329 46.6357 63.7117 48.7891 63.7117 52.9248C63.7117 57.4707 60.157 60.3418 54.1413 60.3418C48.1599 60.3418 44.3318 57.5732 44.195 52.2754H49.1853C49.3562 54.7705 51.3386 56.0352 54.073 56.0352C56.7732 56.0352 58.5163 54.7705 58.5163 52.9248C58.5163 51.25 56.9783 50.4639 54.2781 49.7803L51.5779 49.1309C47.4079 48.1055 44.8445 46.0205 44.8445 42.3975C44.8445 37.8857 48.8093 34.9121 54.2097 34.9121C59.6784 34.9121 63.3015 37.9541 63.3699 42.3291H58.448ZM78.8533 52.1045V41.4404H83.9118V60H79.0583V56.6504H78.8533C77.9988 58.8037 76.0163 60.2393 73.2136 60.2393C69.488 60.2393 66.9587 57.6074 66.9587 53.2666V41.4404H72.0173V52.3779C72.0173 54.5654 73.282 55.9668 75.2644 55.9668C77.1101 55.9668 78.8533 54.6338 78.8533 52.1045ZM92.9011 49.2676V60H87.8425V41.4404H92.6618V44.6875H92.8669C93.7214 42.5342 95.7038 41.2012 98.4382 41.2012C102.301 41.2012 104.864 43.833 104.83 48.1738V60H99.8054V49.0625C99.8054 46.7725 98.5408 45.4053 96.4558 45.4053C94.3367 45.4053 92.9011 46.8066 92.9011 49.2676Z" fill="#FF8282"/>
<path d="M182.618 35.2539H188.975L195.845 52.0361H196.119L202.989 35.2539H209.346V60H204.356V43.7988H204.151L197.691 59.8975H194.273L187.813 43.7305H187.608V60H182.618V35.2539ZM221.753 60.376C216.148 60.376 212.661 56.5137 212.661 50.7715C212.661 45.0293 216.148 41.2012 221.753 41.2012C227.359 41.2012 230.879 45.0293 230.879 50.7715C230.879 56.5137 227.359 60.376 221.753 60.376ZM221.787 56.4453C224.385 56.4453 225.718 54.0186 225.718 50.7715C225.718 47.4902 224.385 45.0635 221.787 45.0635C219.156 45.0635 217.788 47.4902 217.788 50.7715C217.788 54.0186 219.156 56.4453 221.787 56.4453ZM239.117 49.2676V60H234.058V41.4404H238.877V44.6875H239.082C239.937 42.5342 241.919 41.2012 244.654 41.2012C248.516 41.2012 251.079 43.833 251.045 48.1738V60H246.021V49.0625C246.021 46.7725 244.756 45.4053 242.671 45.4053C240.552 45.4053 239.117 46.8066 239.117 49.2676Z" fill="white"/>
<path d="M336.088 39.4922V35.2539H356.357V39.4922H348.769V60H343.676V39.4922H336.088ZM368.798 52.1045V41.4404H373.857V60H369.003V56.6504H368.798C367.944 58.8037 365.961 60.2393 363.159 60.2393C359.433 60.2393 356.904 57.6074 356.904 53.2666V41.4404H361.962V52.3779C361.962 54.5654 363.227 55.9668 365.209 55.9668C367.055 55.9668 368.798 54.6338 368.798 52.1045ZM386.196 60.376C380.522 60.376 377.035 56.6846 377.035 50.8057C377.035 45.0635 380.556 41.2012 385.991 41.2012C390.878 41.2012 394.706 44.2773 394.706 50.6006V52.0361H382.026C382.026 54.8389 383.701 56.582 386.298 56.582C388.007 56.582 389.238 55.8301 389.75 54.7021H394.57C393.852 58.1201 390.776 60.376 386.196 60.376ZM382.026 48.8574H389.921C389.921 46.6016 388.349 44.9951 386.093 44.9951C383.769 44.9951 382.111 46.7212 382.026 48.8574Z" fill="white"/>
<path d="M477.223 60L470.147 35.2539H475.753L479.923 52.5488H480.128L484.674 35.2539H489.493L494.039 52.583H494.244L498.414 35.2539H504.019L496.944 60H491.92L487.203 43.6621H486.998L482.247 60H477.223ZM512.94 60.376C507.267 60.376 503.78 56.6846 503.78 50.8057C503.78 45.0635 507.301 41.2012 512.735 41.2012C517.623 41.2012 521.451 44.2773 521.451 50.6006V52.0361H508.77C508.77 54.8389 510.445 56.582 513.043 56.582C514.752 56.582 515.982 55.8301 516.495 54.7021H521.314C520.597 58.1201 517.52 60.376 512.94 60.376ZM508.77 48.8574H516.666C516.666 46.6016 515.094 44.9951 512.838 44.9951C510.514 44.9951 508.856 46.7212 508.77 48.8574ZM531.466 60.3076C527.227 60.3076 523.912 56.9238 523.912 50.7373C523.912 44.3799 527.364 41.2012 531.466 41.2012C534.576 41.2012 536.046 43.0469 536.729 44.5508H536.9V35.2539H541.959V60H536.969V57.0264H536.729C536.012 58.5645 534.474 60.3076 531.466 60.3076ZM533.038 56.2744C535.567 56.2744 537.003 54.0527 537.003 50.7031C537.003 47.3535 535.567 45.2344 533.038 45.2344C530.475 45.2344 529.107 47.4561 529.107 50.7031C529.107 53.9844 530.475 56.2744 533.038 56.2744Z" fill="white"/>
<path d="M627.556 39.4922V35.2539H647.825V39.4922H640.237V60H635.144V39.4922H627.556ZM655.959 49.2676V60H650.901V35.2539H655.823V44.6875H656.028C656.882 42.5342 658.762 41.2012 661.565 41.2012C665.427 41.2012 667.991 43.7988 667.991 48.1738V60H662.932V49.0625C662.932 46.7725 661.702 45.4053 659.583 45.4053C657.463 45.4053 655.959 46.8066 655.959 49.2676ZM683.782 52.1045V41.4404H688.84V60H683.987V56.6504H683.782C682.927 58.8037 680.945 60.2393 678.142 60.2393C674.417 60.2393 671.887 57.6074 671.887 53.2666V41.4404H676.946V52.3779C676.946 54.5654 678.21 55.9668 680.193 55.9668C682.039 55.9668 683.782 54.6338 683.782 52.1045Z" fill="white"/>
<path d="M781.08 60V35.2539H797.384V39.4922H786.207V45.5078H796.324V49.7461H786.207V60H781.08ZM800.358 60V41.4404H805.245V44.6533H805.45C806.134 42.3633 807.843 41.167 809.928 41.167C810.441 41.167 811.09 41.2354 811.534 41.3379V45.8496C811.056 45.7129 810.099 45.5762 809.381 45.5762C807.091 45.5762 805.416 47.1826 805.416 49.4385V60H800.358ZM813.995 60V41.4404H819.054V60H813.995ZM816.524 39.0137C814.986 39.0137 813.756 37.8516 813.756 36.4502C813.756 35.0146 814.986 33.8525 816.524 33.8525C818.028 33.8525 819.259 35.0146 819.259 36.4502C819.259 37.8516 818.028 39.0137 816.524 39.0137Z" fill="white"/>
<path d="M936.925 42.3291C936.72 40.3809 935.148 39.2188 932.653 39.2188C930.055 39.2188 928.62 40.415 928.586 42.0557C928.551 43.833 930.431 44.6533 932.55 45.1318L934.772 45.6787C939.01 46.6357 942.189 48.7891 942.189 52.9248C942.189 57.4707 938.634 60.3418 932.619 60.3418C926.637 60.3418 922.809 57.5732 922.672 52.2754H927.663C927.834 54.7705 929.816 56.0352 932.55 56.0352C935.251 56.0352 936.994 54.7705 936.994 52.9248C936.994 51.25 935.456 50.4639 932.755 49.7803L930.055 49.1309C925.885 48.1055 923.322 46.0205 923.322 42.3975C923.322 37.8857 927.287 34.9121 932.687 34.9121C938.156 34.9121 941.779 37.9541 941.847 42.3291H936.925ZM944.547 54.8047C944.547 50.6689 947.897 49.3018 951.452 49.0967C952.785 49.0112 955.28 48.8916 956.066 48.8574V47.3535C956.032 45.8154 954.972 44.8926 953.092 44.8926C951.383 44.8926 950.29 45.6787 950.016 46.9434H945.197C945.504 43.7305 948.307 41.2012 953.229 41.2012C957.262 41.2012 961.09 43.0127 961.09 47.4902V60H956.305V57.4365H956.169C955.246 59.1455 953.503 60.3418 950.734 60.3418C947.179 60.3418 944.547 58.4961 944.547 54.8047ZM949.401 54.668C949.401 56.1035 950.563 56.8555 952.17 56.8555C954.46 56.8555 956.1 55.3174 956.066 53.3691V52.002C955.297 52.0361 953.144 52.1558 952.272 52.2412C950.529 52.4121 949.401 53.2324 949.401 54.668ZM974.728 41.4404V45.2344H971.242V54.292C971.242 55.7617 971.96 56.1377 972.985 56.1719C973.498 56.1719 974.386 56.1377 975.002 56.0693V60.0684C974.455 60.1709 973.566 60.2393 972.301 60.2393C968.644 60.2393 966.149 58.5986 966.183 55.0098V45.2344H963.62V41.4404H966.183V36.9971H971.242V41.4404H974.728Z" fill="#52A1FF"/>
<path d="M344.527 223.868C344.527 228.893 345.928 234.088 350.166 236.822L347.808 240.206C345.125 238.583 343.416 235.917 342.442 232.721C341.314 236.241 339.451 239.181 336.631 240.89L333.965 237.677C338.579 234.806 340.288 229.337 340.288 224.073V218.707H344.527V223.868ZM361.514 216.041V247.145H357.344V216.041H361.514ZM354.986 216.485V245.709H350.918V230.089H346.885V226.534H350.918V216.485H354.986ZM376.451 221.407C376.451 225.714 378.57 229.986 383.492 231.798L381.065 235.182C377.801 233.9 375.562 231.456 374.297 228.38C372.93 231.661 370.52 234.225 366.983 235.558L364.659 232.14C369.751 230.328 372.041 225.953 372.041 221.407V217.818H376.451V221.407ZM391.011 216.075V239.146H386.67V229.645H381.338V226.124H386.67V223.629H381.338V220.108H386.67V216.075H391.011ZM391.66 243.111V246.598H370.298V236.925H374.707V243.111H391.66ZM368.282 272.254V297H363.12V277.142H362.984L357.31 280.696V276.15L363.428 272.254H368.282ZM339.954 375.031V392H336.415V378.383H336.322L332.431 380.82V377.703L336.626 375.031H339.954ZM350.079 374.797C353.595 374.82 356.923 376.906 356.923 383.07C356.947 388.836 354.204 392.234 349.939 392.234C346.517 392.234 344.197 390.102 343.845 387.219H347.314C347.595 388.461 348.579 389.211 349.939 389.211C352.259 389.211 353.478 387.148 353.478 383.75H353.337C352.54 385.25 350.876 386.141 348.978 386.141C345.931 386.141 343.681 383.844 343.658 380.68C343.658 377.258 346.236 374.773 350.079 374.797ZM350.103 377.562C348.368 377.562 347.079 378.898 347.103 380.586C347.103 382.25 348.345 383.562 350.079 383.562C351.79 383.562 353.126 382.203 353.126 380.562C353.103 378.945 351.837 377.562 350.103 377.562ZM361.376 389.938C360.275 389.938 359.384 389.047 359.408 387.969C359.384 386.891 360.275 386.023 361.376 386.023C362.408 386.023 363.322 386.891 363.322 387.969C363.322 389.047 362.408 389.938 361.376 389.938ZM361.376 381.008C360.275 381.008 359.384 380.117 359.408 379.039C359.384 377.961 360.275 377.094 361.376 377.094C362.408 377.094 363.322 377.961 363.322 379.039C363.322 380.117 362.408 381.008 361.376 381.008ZM372.673 392.234C368.431 392.234 365.853 389.07 365.853 383.516C365.853 377.961 368.431 374.797 372.673 374.797C376.915 374.797 379.493 377.984 379.493 383.516C379.493 389.094 376.915 392.234 372.673 392.234ZM372.673 389.328C374.642 389.328 375.908 387.43 375.884 383.516C375.884 379.648 374.642 377.68 372.673 377.68C370.704 377.68 369.462 379.648 369.462 383.516C369.439 387.43 370.704 389.328 372.673 389.328ZM388.517 392.234C384.275 392.234 381.697 389.07 381.697 383.516C381.697 377.961 384.275 374.797 388.517 374.797C392.759 374.797 395.337 377.984 395.337 383.516C395.337 389.094 392.759 392.234 388.517 392.234ZM388.517 389.328C390.486 389.328 391.751 387.43 391.728 383.516C391.728 379.648 390.486 377.68 388.517 377.68C386.548 377.68 385.306 379.648 385.306 383.516C385.283 387.43 386.548 389.328 388.517 389.328ZM358.259 426.477C359.056 425.633 360.064 425.188 361.165 425.188C363.087 425.188 364.728 426.523 366.65 426.523C367.728 426.523 368.712 426.078 369.486 425.234V428.094C368.689 428.938 367.681 429.383 366.579 429.383C364.658 429.383 363.017 428.047 361.095 428.047C360.017 428.047 359.033 428.492 358.259 429.336V426.477ZM333.029 476L333.005 473.445L339.099 467.844C340.693 466.32 341.536 465.383 341.536 464.047C341.536 462.547 340.388 461.609 338.841 461.609C337.247 461.609 336.216 462.617 336.216 464.234H332.865C332.841 460.906 335.302 458.797 338.888 458.797C342.521 458.797 344.935 460.859 344.935 463.812C344.935 465.734 343.997 467.328 340.505 470.492L337.927 473V473.094H345.169V476H333.029ZM354.99 459.031V476H351.451V462.383H351.357L347.466 464.82V461.703L351.661 459.031H354.99ZM360.99 473.938C359.888 473.938 358.997 473.047 359.021 471.969C358.997 470.891 359.888 470.023 360.99 470.023C362.021 470.023 362.935 470.891 362.935 471.969C362.935 473.047 362.021 473.938 360.99 473.938ZM360.99 465.008C359.888 465.008 358.997 464.117 359.021 463.039C358.997 461.961 359.888 461.094 360.99 461.094C362.021 461.094 362.935 461.961 362.935 463.039C362.935 464.117 362.021 465.008 360.99 465.008ZM372.286 476.234C368.044 476.234 365.466 473.07 365.466 467.516C365.466 461.961 368.044 458.797 372.286 458.797C376.529 458.797 379.107 461.984 379.107 467.516C379.107 473.094 376.529 476.234 372.286 476.234ZM372.286 473.328C374.255 473.328 375.521 471.43 375.497 467.516C375.497 463.648 374.255 461.68 372.286 461.68C370.318 461.68 369.076 463.648 369.076 467.516C369.052 471.43 370.318 473.328 372.286 473.328ZM388.13 476.234C383.888 476.234 381.31 473.07 381.31 467.516C381.31 461.961 383.888 458.797 388.13 458.797C392.372 458.797 394.951 461.984 394.951 467.516C394.951 473.094 392.372 476.234 388.13 476.234ZM388.13 473.328C390.099 473.328 391.365 471.43 391.341 467.516C391.341 463.648 390.099 461.68 388.13 461.68C386.161 461.68 384.919 463.648 384.919 467.516C384.896 471.43 386.161 473.328 388.13 473.328Z" fill="white"/>
<path d="M636.663 223.868C636.663 228.893 638.065 234.088 642.303 236.822L639.945 240.206C637.262 238.583 635.553 235.917 634.578 232.721C633.451 236.241 631.588 239.181 628.768 240.89L626.102 237.677C630.716 234.806 632.425 229.337 632.425 224.073V218.707H636.663V223.868ZM653.651 216.041V247.145H649.481V216.041H653.651ZM647.122 216.485V245.709H643.055V230.089H639.022V226.534H643.055V216.485H647.122ZM668.587 221.407C668.587 225.714 670.706 229.986 675.628 231.798L673.201 235.182C669.937 233.9 667.699 231.456 666.434 228.38C665.067 231.661 662.657 234.225 659.119 235.558L656.795 232.14C661.888 230.328 664.178 225.953 664.178 221.407V217.818H668.587V221.407ZM683.148 216.075V239.146H678.807V229.645H673.475V226.124H678.807V223.629H673.475V220.108H678.807V216.075H683.148ZM683.797 243.111V246.598H662.435V236.925H666.844V243.111H683.797ZM647.276 297L647.242 293.274L656.129 285.105C658.453 282.884 659.683 281.517 659.683 279.568C659.683 277.381 658.009 276.014 655.753 276.014C653.429 276.014 651.925 277.483 651.925 279.842H647.037C647.003 274.988 650.592 271.912 655.821 271.912C661.119 271.912 664.639 274.92 664.639 279.227C664.639 282.029 663.272 284.354 658.18 288.968L654.42 292.625V292.762H664.981V297H647.276ZM632.091 375.031V392H628.552V378.383H628.458L624.568 380.82V377.703L628.763 375.031H632.091ZM642.216 374.797C645.732 374.82 649.06 376.906 649.06 383.07C649.083 388.836 646.341 392.234 642.076 392.234C638.654 392.234 636.333 390.102 635.982 387.219H639.451C639.732 388.461 640.716 389.211 642.076 389.211C644.396 389.211 645.615 387.148 645.615 383.75H645.474C644.677 385.25 643.013 386.141 641.115 386.141C638.068 386.141 635.818 383.844 635.794 380.68C635.794 377.258 638.372 374.773 642.216 374.797ZM642.24 377.562C640.505 377.562 639.216 378.898 639.24 380.586C639.24 382.25 640.482 383.562 642.216 383.562C643.927 383.562 645.263 382.203 645.263 380.562C645.24 378.945 643.974 377.562 642.24 377.562ZM653.513 389.938C652.411 389.938 651.521 389.047 651.544 387.969C651.521 386.891 652.411 386.023 653.513 386.023C654.544 386.023 655.458 386.891 655.458 387.969C655.458 389.047 654.544 389.938 653.513 389.938ZM653.513 381.008C652.411 381.008 651.521 380.117 651.544 379.039C651.521 377.961 652.411 377.094 653.513 377.094C654.544 377.094 655.458 377.961 655.458 379.039C655.458 380.117 654.544 381.008 653.513 381.008ZM664.81 392.234C660.568 392.234 657.99 389.07 657.99 383.516C657.99 377.961 660.568 374.797 664.81 374.797C669.052 374.797 671.63 377.984 671.63 383.516C671.63 389.094 669.052 392.234 664.81 392.234ZM664.81 389.328C666.779 389.328 668.044 387.43 668.021 383.516C668.021 379.648 666.779 377.68 664.81 377.68C662.841 377.68 661.599 379.648 661.599 383.516C661.576 387.43 662.841 389.328 664.81 389.328ZM680.654 392.234C676.411 392.234 673.833 389.07 673.833 383.516C673.833 377.961 676.411 374.797 680.654 374.797C684.896 374.797 687.474 377.984 687.474 383.516C687.474 389.094 684.896 392.234 680.654 392.234ZM680.654 389.328C682.622 389.328 683.888 387.43 683.865 383.516C683.865 379.648 682.622 377.68 680.654 377.68C678.685 377.68 677.443 379.648 677.443 383.516C677.419 387.43 678.685 389.328 680.654 389.328ZM650.396 426.477C651.193 425.633 652.201 425.188 653.302 425.188C655.224 425.188 656.865 426.523 658.786 426.523C659.865 426.523 660.849 426.078 661.622 425.234V428.094C660.826 428.938 659.818 429.383 658.716 429.383C656.794 429.383 655.154 428.047 653.232 428.047C652.154 428.047 651.169 428.492 650.396 429.336V426.477ZM625.165 476L625.142 473.445L631.236 467.844C632.829 466.32 633.673 465.383 633.673 464.047C633.673 462.547 632.525 461.609 630.978 461.609C629.384 461.609 628.353 462.617 628.353 464.234H625.001C624.978 460.906 627.439 458.797 631.025 458.797C634.658 458.797 637.072 460.859 637.072 463.812C637.072 465.734 636.134 467.328 632.642 470.492L630.064 473V473.094H637.306V476H625.165ZM647.126 459.031V476H643.587V462.383H643.493L639.603 464.82V461.703L643.798 459.031H647.126ZM653.126 473.938C652.025 473.938 651.134 473.047 651.158 471.969C651.134 470.891 652.025 470.023 653.126 470.023C654.158 470.023 655.072 470.891 655.072 471.969C655.072 473.047 654.158 473.938 653.126 473.938ZM653.126 465.008C652.025 465.008 651.134 464.117 651.158 463.039C651.134 461.961 652.025 461.094 653.126 461.094C654.158 461.094 655.072 461.961 655.072 463.039C655.072 464.117 654.158 465.008 653.126 465.008ZM664.423 476.234C660.181 476.234 657.603 473.07 657.603 467.516C657.603 461.961 660.181 458.797 664.423 458.797C668.665 458.797 671.243 461.984 671.243 467.516C671.243 473.094 668.665 476.234 664.423 476.234ZM664.423 473.328C666.392 473.328 667.658 471.43 667.634 467.516C667.634 463.648 666.392 461.68 664.423 461.68C662.454 461.68 661.212 463.648 661.212 467.516C661.189 471.43 662.454 473.328 664.423 473.328ZM680.267 476.234C676.025 476.234 673.447 473.07 673.447 467.516C673.447 461.961 676.025 458.797 680.267 458.797C684.509 458.797 687.087 461.984 687.087 467.516C687.087 473.094 684.509 476.234 680.267 476.234ZM680.267 473.328C682.236 473.328 683.501 471.43 683.478 467.516C683.478 463.648 682.236 461.68 680.267 461.68C678.298 461.68 677.056 463.648 677.056 467.516C677.033 471.43 678.298 473.328 680.267 473.328Z" fill="white"/>
</svg>
